# xmcd
#
# Track frame offsets:
#	150
#	12270
#	25803
#	40437
#	51784
#	65036
#	81084
#	94663
#	106292
#	118680
#	134258
#	148899
#	164268
#	178640
#	192501
#	205774
#	219370
#	231274
#
# Disc length: 3282 seconds
#
# Revision: 0
# Processed by: cddbd v1.5.2PL0 Copyright (c) Steve Scherf et al.
# Submitted via: EasyCDDAExtractor 16.0.6.1
#
DISCID=030cd012
DTITLE=Maiara e Maraisa - Ao Vivo em Goiânia
DYEAR=1900
DGENRE=Arrocha
TTITLE0=Show completo
TTITLE1=Quase um casal
TTITLE2=Voce se transformou
TTITLE3=Mexidinho
TTITLE4=10%
TTITLE5=Se olha no espelho (Cristiano Araujo)
TTITLE6=No dia do seu casamento
TTITLE7=Fala a verdade (Jorge e Matheus)
TTITLE8=Te procirava de novo
TTITLE9=Pessoa errada
TTITLE10=Sem tirar a roupa
TTITLE11=Dois idiotas (Bruno e Marrone)
TTITLE12=Motel (Marilia Mendonça)
TTITLE13=Encontro com o passado
TTITLE14=Medo bobo
TTITLE15=Luz de velas
TTITLE16=Turma do AA
TTITLE17=É rolo
EXTD=
EXTT0=
EXTT1=
EXTT2=
EXTT3=
EXTT4=
EXTT5=
EXTT6=
EXTT7=
EXTT8=
EXTT9=
EXTT10=
EXTT11=
EXTT12=
EXTT13=
EXTT14=
EXTT15=
EXTT16=
EXTT17=
PLAYORDER=
